# xmcd
#
# Track frame offsets:
#  150
#  10653
#  26664
#  42604
#  56345
#  68049
#  82313
#  95317
#  112218
#  127807
#  136869
#
# Disc length: 1982 seconds
#
# Revision: 0
# Processed by: cddbd v1.5.2PL0 Copyright (c) Steve Scherf et al.
# Submitted via: AltoMP3_Maker 3.0
#
DISCID=9007bc0b
DTITLE=The Bo-Stevens - Your Crazy Heart
DYEAR=1900
DGENRE=
TTITLE0=Since You've Been Gone
TTITLE1=Lukewarm Beers and Cold, Cold Tears
TTITLE2=Blood on the Roses
TTITLE3=Kick Me When I'm Down
TTITLE4=Gibby's Hula
TTITLE5=One Minute Closer to the End
TTITLE6=Long Way From Home
TTITLE7=Your Crazy Heart
TTITLE8=Redeemed
TTITLE9=Drinkin' and Dyin'
TTITLE10=Waiting For My Baby to Come Home
EXTD=
EXTT0=
EXTT1=
EXTT2=
EXTT3=
EXTT4=
EXTT5=
EXTT6=
EXTT7=
EXTT8=
EXTT9=
EXTT10=
PLAYORDER=
